<?xml version="1.0" encoding="utf-8"?>
<!-- Generator: Adobe Illustrator 17.0.0, SVG Export Plug-In . SVG Version: 6.00 Build 0)  -->
<!DOCTYPE svg PUBLIC "-//W3C//DTD SVG 1.1//EN" "http://www.w3.org/Graphics/SVG/1.1/DTD/svg11.dtd">
<svg version="1.1" id="notes" xmlns="http://www.w3.org/2000/svg" xmlns:xlink="http://www.w3.org/1999/xlink" x="0px" y="0px"
	 width="1000px" height="1000px" viewBox="0 0 1000 1000" enable-background="new 0 0 1000 1000" xml:space="preserve">
<path fill="#F2F2F2" d="M639.855,738.263c-5.69-7.165-14.005-11.375-21.823-15.823c-7.453-4.24-15.105-8.113-22.863-11.761
	c5.137-11.182,10.47-22.255,16.191-33.115c6.876-1.018,13.668-2.73,20.319-5.566c15.752-6.715,34.931-24.356,30.513-43.394
	c-1.578-6.802-9.059-7.946-14.649-6.463c-9.982,2.648-17.647,14.666-23.32,22.399c-6.47,8.82-12.028,18.398-17.103,28.309
	c-20.684,2.567-42.726-1.519-63.096-1.172c-15.606,0.266-36.699,2.508-46.678,16c-10.918,14.76,9.533,30.396,19.941,36.674
	c17.062,10.293,33.997,21.125,51.453,30.822c-4.113,8.705-8.226,17.41-12.339,26.116c-7.931,16.785-14.846,40.799-30.798,51.851
	c-12.05,8.347-34.626,0.178-46.01-6.233c-5.033-2.835-9.544-6.906-11.932-12.165c-1.499-3.302-2.095-7.191-0.744-10.557
	c2.16-5.382,8.543-7.831,14.339-8.015c9.732-0.309,19.494,4.337,25.393,12.084c1.298,1.704,2.436,4.055,1.326,5.887
	c-0.745,1.23-2.268,1.747-3.696,1.913c-4.851,0.563-9.916-2.156-12.127-6.51c-0.677-1.333-1.281-2.96-2.709-3.404
	c-1.582-0.491-3.238,0.939-3.62,2.551c-2.53,10.663,18.152,16.101,25.525,11.713c6.787-4.039,3.84-11.011-0.412-16.137
	c-6.207-7.485-14.284-12-23.881-13.506c-7.662-1.203-19.591,0.857-23.814,8.328c-12.544,22.195,17.048,35.583,33.395,40.133
	c9.76,2.717,19.32,4.487,28.933,0.373c9.028-3.864,14.842-12.967,19.394-21.203c10.779-19.503,20.102-39.819,29.153-60.29
	c1.435,0.771,2.864,1.555,4.307,2.308c14.286,7.45,33.881,14.308,49.672,7.308C639.311,762.745,649.137,749.95,639.855,738.263z
	 M623.496,655.934c4.023-6.68,8.713-12.892,13.854-18.746c2.44-2.779,5.086-5.393,8.063-7.596
	c5.914-4.377,12.515,2.338,11.166,8.613c-3.264,15.178-18.36,25.409-31.886,30.49c-3.319,1.247-6.705,2.197-10.138,2.932
	C617.435,666.339,620.388,661.093,623.496,655.934z M562.333,744.687c-14.095-8.439-28.19-16.878-42.285-25.318
	c-6.447-3.86-12.632-7.796-16.835-14.209c-7.235-11.039,2.135-19.361,11.891-23.029c13.055-4.909,27.536-5.064,41.291-4.678
	c15.967,0.448,32.144,2.234,47.952,0.93c-4.865,9.93-9.332,20.11-13.81,30.134c-2.599-1.183-5.204-2.35-7.823-3.484
	c-9.315-4.032-36.472-18.522-40.844-0.477c-3.849,15.886,20.987,28.154,32.874,30.241c3.595,0.631,4.966-4.901,1.339-5.538
	c-8.118-1.426-14.817-4.608-21.024-10.065c-3.145-2.766-5.737-6.371-7.349-10.231c-4.065-9.732,10.613-7.117,13.546-6.272
	c9.169,2.643,18.234,6.519,27.066,10.764c-1.614,3.578-3.238,7.129-4.893,10.63c-4.08,8.636-8.161,17.272-12.241,25.908
	C568.203,748.23,565.254,746.436,562.333,744.687z M596.878,761.998c-7.15-2.05-13.932-5.35-20.502-9.024
	c5.473-12.443,10.887-24.92,16.496-37.29c4.388,2.183,8.719,4.418,12.958,6.612c10.233,5.297,34.031,14.338,31.654,28.967
	C634.737,768.158,607.848,765.143,596.878,761.998z"/>
<path fill="#F2F2F2" d="M578.19,30.758c-8.763,1.988-13.264,11.019-16.177,18.609c-0.791,2.06-1.627,4.384-2.424,6.852
	c-13.209-5.178-26.473-10.213-39.8-15.077c-0.378-0.138-0.756-0.273-1.133-0.41c-9.624-18.121-27.519-35.446-49.484-34.153
	c-4.825,0.284-11.183,5.81-8.165,11.141c5.25,9.272,18.227,13.82,27.535,17.842c8.769,3.79,17.687,7.266,26.66,10.627
	c2.532,5.105,4.768,10.364,7.042,15.397c6.494,14.374,12.775,28.868,19.553,43.11c8.977,18.862,26.674,26.297,45.536,15.984
	c12.735-6.964,19.975-22.195,22.932-37.407c16.382,7.09,32.664,14.414,48.825,21.995c13.204,6.194,27.119,11.98,39.546,19.638
	c9.375,5.777,11.339,13.732,4.2,23.253c-4.542,6.058-11.074,10.637-17.87,13.767c-5.708,2.629-12.04,2.944-18.056,1.39
	c-10.176-2.629-8.685-13.248-1.33-17.709c4.158-2.522,9.813-1.514,14.125-0.262c3.509,1.018,5.48-4.328,1.948-5.353
	c-8.326-2.417-16.582-2.159-23.26,3.913c-4.648,4.226-6.811,14.721-1.72,19.536c14.941,14.131,36.735,3.201,48.575-9.407
	c5.151-5.486,10.873-14.208,7.27-22.066c-4.11-8.964-12.794-13.264-21.226-17.45c-26.359-13.085-53.108-25.372-80.119-37.049
	c0.628-5.034,0.818-9.954,0.569-14.439C610.747,45.159,598.571,26.134,578.19,30.758z M481.244,25.979
	c-3.045-1.475-16.357-7.158-10.976-13.147c1.891-2.103,7.002,0.045,9.438,0.66c8.919,2.251,16.731,7.592,23.067,14.099
	c2.998,3.079,5.553,6.55,7.828,10.232C500.667,34.244,490.772,30.596,481.244,25.979z M562.148,118.708
	c-13.373-4.035-18.788-24.218-23.857-35.438c-5.16-11.421-10.117-22.978-15.557-34.281c11.729,4.301,23.516,8.479,35.205,12.862
	c-2.124,8.136-3.244,17.032-0.754,23.771c2.825,7.647,9.007,13.121,17.482,10.814c6.68-1.818,9.941-8.568,9.447-14.943
	c-0.283-3.658-5.887-2.613-5.605,1.019c0.809,10.445-10.874,10.854-15.251,3.167c-2.333-4.097-1.427-9.593-0.921-13.998
	c0.296-2.579,0.755-5.138,1.32-7.675c3.324,1.274,6.638,2.567,9.935,3.896c10.538,4.249,21.011,8.654,31.454,13.131
	C600.539,103.468,585.48,125.747,562.148,118.708z M605.155,55.526c1.433,5.679,1.674,12.562,0.823,19.687
	c-13.544-5.806-27.176-11.406-40.876-16.833c0.97-3.344,2.102-6.642,3.342-9.874C577.074,26.021,600.601,37.481,605.155,55.526z"/>
<path fill="#F2F2F2" d="M208.014,445.314c3.88,3.254,7.223,6.02,12.428,5.96c5.011-0.058,9.084-7.7,11.524-10.852
	c5.055-6.531,10.111-13.062,15.166-19.593c4.231,3.507,8.599,6.887,13.044,10.2c-2.688,3.07-5.115,6.323-6.938,9.984
	c-4.069,8.174,1.363,16.123,6.82,21.854c8.96,9.409,20.201,17.496,31.076,24.522c7.399,4.78,17.723,11.615,27.122,8.529
	c24.309-7.979-8.172-33.561-16.142-40.218c-10.749-8.978-21.917-17.34-33.046-25.751c12.863-13.541,30.637-30.997,21.944-49.872
	c-2.725-5.917-9.405-10.013-14.363-13.805c-6.048-4.626-12.308-9.072-18.92-12.86c-11.6-6.646-22.929-4.499-32.985,3.679
	c-6.419,5.22-12.89,11.735-18.786,18.652c-13.673-13.119-27.258-26.33-41.487-38.857c-10.019-8.82-20.461-17.134-31.309-24.911
	c-7.593-5.443-16.272-10.315-14.357-21.394c1.379-7.976,6.988-16.275,11.575-22.694c9.884-13.831,21.558-9.841,33.659-1.846
	c6.591,4.355-2.107,18.319-4.603,23.166c-1.981,3.846-6.792,13.506-13.562,8.482c-2.813-2.088-4.977-4.891-7.841-6.99
	c-2.941-2.155-6.702,2.127-3.737,4.299c6.483,4.75,11.245,12.705,20.254,9.814c3.115-1,5.184-5.169,6.823-7.662
	c4.077-6.2,7.022-13.069,9.449-20.051c2.904-8.354,1.76-12.442-5.721-17.121c-6.849-4.284-16.163-9.53-24.622-7.143
	c-9.957,2.809-15.614,12.404-20.597,20.821c-4.501,7.602-10.954,20.785-5.178,29.435c7.719,11.56,20.381,18.77,31.518,26.567
	c12.028,8.421,22.679,18.683,33.382,28.695c7.661,7.167,15.219,14.442,22.79,21.7c-3.608,4.526-6.934,9.145-9.759,13.638
	c-7.34,11.674-7.36,22.973-0.537,34.897C195.903,435.232,202.248,440.478,208.014,445.314z M317.964,478.4
	c4.943,5.688-1.159,12.93-7.704,12.061c-3.194-0.424-6.246-2.096-9.069-3.543c-6.673-3.419-12.782-8.134-18.786-12.592
	c-5.813-4.316-11.303-9.049-16.665-13.907c-8.592-7.784-9.765-15.732-2.025-24.651c0.369-0.425,0.75-0.855,1.14-1.29
	C283.475,448.087,302.888,461.052,317.964,478.4z M236.914,356.067c13.226-5.918,29.304,9.383,38.8,16.647
	c7.822,5.983,13.016,11.339,10.951,22.147c-1.575,8.243-7.312,15.328-12.609,21.515c-2.981,3.482-6.35,6.73-9.608,10.071
	c-4.541-3.449-9.063-6.925-13.538-10.467c7.311-9.149,16.58-19.13,9.351-30.867c-5.912-9.598-17.921-5.733-24.106,1.29
	c-0.618,0.702-1.23,1.556-1.101,2.482c0.276,1.991,3.183,1.974,5.059,1.254c3.327-1.277,6.616-3.039,10.18-3.016
	c9.996,0.066,6.994,10.568,3.446,15.819c-1.896,2.806-4.154,5.426-6.226,8.103c-0.353,0.456-0.706,0.912-1.059,1.369
	c-5.232-4.234-10.387-8.578-15.404-13.121c-6.994-6.333-13.851-12.811-20.672-19.327
	C217.967,370.467,226.667,360.652,236.914,356.067z M202.112,432.224c-6.231-6.307-10.256-14.687-9.598-23.649
	c0.523-7.124,5.847-13.442,10.1-18.761c1.388-1.736,2.821-3.572,4.292-5.452c11.715,11.194,23.541,22.265,35.886,32.781
	c-2.836,3.664-5.673,7.329-8.509,10.994c-4.141,5.35-8.182,10.799-12.489,16.017C217.448,449.419,204.915,435.061,202.112,432.224z"
	/>
<g>
	<path fill="#F2F2F2" d="M746.674,227.502c-6.115-8.721-16.484-15.376-27.264-15.996c-11.665-0.671-27.503,1.533-36.872,9.247
		c-9.049,7.451-11.437,18.214-12.836,29.372c-1.14,9.088-1.44,18.961,2.96,27.298c13.332,25.259,47.577-18.064,17.389-22.948
		c-5.73-0.927-11.198,1.837-14.83,6.197c4.184-16.684,12.64-32.637,31.863-34.033c9.92-0.72,18.974,4.842,24.663,12.587
		c6.135,8.354,5.758,19.374,3.478,28.945c-4.137,17.363-16.701,33.679-25.602,48.872c-5.618,9.589-11.236,19.177-16.854,28.767
		c-1.789,3.054-18.416,26.993-17.35,28.248c5.477,6.372,62.598-64.481,67.06-70.506C758.119,282.43,762.266,249.74,746.674,227.502z
		"/>
	<g>
		<path fill="#F2F2F2" d="M788.664,228.773c-4.593-0.487-8.421,2.117-8.885,7.024c-0.941,9.952,11.737,11.81,16.644,4.704
			C800.379,234.773,794.148,229.355,788.664,228.773z"/>
		<path fill="#F2F2F2" d="M788.664,284.129c-4.593-0.487-8.421,2.116-8.885,7.024c-0.941,9.952,11.737,11.81,16.644,4.703
			C800.379,290.129,794.148,284.71,788.664,284.129z"/>
	</g>
</g>
<g>
	<path fill="#F2F2F2" d="M924.604,95.184c14.129-8.89,25.414-22.421,30.133-38.411c2.764-9.365-1.281-18.97-6.508-26.614
		c-6.904-10.099-20.099-15.735-32.146-13.264c-9.639,1.977-21.219,9.778-17.627,21.062c2.891,9.082,15.562,15.37,24.532,12.244
		c10.543-3.674,15.029-16.077,8.369-23.866c14.713,5.429,12.156,23.549,5.799,34.48c-8.797,15.126-24.388,26.369-41.471,30.065
		c-12.79,2.767-26.05,2.136-38.862-0.142c-17.446-3.102-35.044-4.913-52.437-9.896c-2.996-0.858-4.839,3.67-1.806,4.539
		c3.111,0.891,17.402,5.742,20.4,6.096c17.538,5.35,35.182,10.733,53.079,14.036C892.55,108.556,910.08,104.323,924.604,95.184z"/>
	<g>
		<path fill="#F2F2F2" d="M966.688,89.217c0.319-7.22-5.968-12.464-12.425-7.296C941.474,92.155,965.975,105.32,966.688,89.217z"/>
		<path fill="#F2F2F2" d="M933.331,115.278c0.319-7.22-5.968-12.464-12.425-7.296C908.117,118.217,932.618,131.381,933.331,115.278z
			"/>
	</g>
</g>
<path fill="#F2F2F2" d="M947.018,725.188c-14.375,3.379-28.689,6.993-42.942,10.842c2.588-14.966,4.886-29.982,6.864-45.046
	c11.254-3.043,22.526-6.024,33.835-8.868c3.561-0.896,2.049-6.389-1.514-5.493c-10.53,2.648-21.028,5.412-31.511,8.233
	c0.745-5.928,1.45-11.862,2.1-17.804c0.399-3.649-5.301-3.611-5.696,0c-0.709,6.483-1.495,12.955-2.32,19.421
	c-12.4,3.378-24.772,6.853-37.104,10.472c0.794-10.408,1.474-20.827,2.023-31.256c0.193-3.672-5.504-3.654-5.696,0
	c-0.578,11.001-1.296,21.99-2.147,32.968c-7.83,2.324-15.651,4.682-23.454,7.103c-3.497,1.085-2.004,6.584,1.514,5.493
	c7.13-2.212,14.279-4.359,21.432-6.491c-1.233,15.019-2.716,30.015-4.456,44.984c-7.3,2.235-14.628,4.35-22.038,6.082
	c-3.576,0.836-2.059,6.328,1.514,5.493c6.633-1.55,13.204-3.401,19.749-5.37c-1.564,12.916-3.281,25.815-5.235,38.685
	c-0.545,3.592,4.943,5.136,5.493,1.514c2.121-13.976,3.987-27.984,5.662-42.012c9.453-2.934,18.871-6.01,28.353-8.712
	c1.827-0.521,3.662-1.014,5.492-1.525c-3.239,17.815-6.914,35.554-11.041,53.202c-0.836,3.574,4.657,5.091,5.493,1.514
	c4.373-18.703,8.229-37.509,11.605-56.398c15.107-4.127,30.295-7.955,45.54-11.538C952.107,729.841,950.591,724.349,947.018,725.188
	z M889.929,739.933c-8.735,2.461-17.403,5.266-26.093,7.99c1.714-14.944,3.191-29.913,4.404-44.908
	c12.224-3.601,24.491-7.049,36.781-10.413c-2.012,15.083-4.355,30.115-6.99,45.096C895.33,738.441,892.626,739.173,889.929,739.933z
	"/>
<path fill="#F2F2F2" d="M486.333,476.62c-5.966-21.129-56.78-17.588-52.293,5.348c2.831,14.471,18.381,15.242,30.403,14.55
	c4.921-0.283,12.163-0.518,16.055-4.019C484.337,489.045,487.835,481.941,486.333,476.62z M473.095,489.613
	c-3.859,1.183-8.125,1.178-12.129,1.409c-7.208,0.415-15.169,0.108-20.082-6.26c-12.046-15.619,24.583-16.163,31.692-14.174
	C481.433,473.066,483.395,486.456,473.095,489.613z"/>
<path fill="#F2F2F2" d="M892.303,410.938c0.654-0.483,1.314-1.004,1.978-1.563c6.636-5.58,13.513-10.893,20.28-16.311
	c19.214-15.381,38.774-30.969,58.022-46.307c2.988-2.381,6.151-4.898,9.281-7.389c3.152-2.463-1.041-7.83-4.193-5.367
	l-83.297,65.079c-1.106-18.171-26.182-40.963-38.777-26.439c-9.657,11.137-0.479,24.142,7.465,33.189
	C872.394,416.458,881.786,418.7,892.303,410.938z M874.058,408.688c-3.308-2.313-5.931-5.677-8.577-8.69
	c-4.764-5.425-9.424-11.887-7.431-19.679c4.892-19.109,27.871,9.42,30.681,16.248C892.231,405.072,882.887,414.861,874.058,408.688z
	"/>
<path fill="#F2F2F2" d="M182.098,817.11c-20.081-14.23-39.865-28.305-59.914-42.58c-3.112-2.216-5.975-4.251-9.07-6.456
	c-5.014-3.565-30.521,43.463-33.724,49.13c-4.536,8.025-30.563,45.006-22.199,51.082l82.5,59.94
	c-17.162,6.072-31.923,36.134-14.49,44.238c13.367,6.214,23.457-6.356,29.964-16.487c7.643-11.899,7.28-21.642-3.08-29.612
	c-0.645-0.496-1.303-1.019-2.023-1.504c-7.193-4.841-14.184-10.003-21.257-15.015c-16.85-11.941-33.6-23.642-50.363-35.576
	c15.394-29.275,31.465-57.916,48.504-86.326l65.835,47.832c-17.162,6.072-31.826,36.001-14.394,44.104
	c13.367,6.214,23.505-6.423,30.012-16.553c7.643-11.899,7.304-21.675-3.056-29.646c-0.645-0.496-1.268-1.068-1.988-1.553
	C196.162,827.286,189.171,822.122,182.098,817.11z"/>
<path fill="#F2F2F2" d="M167.279,101.866c-0.291-24.61-0.532-48.889-0.768-73.499c-0.037-3.82-0.073-7.332-0.109-11.133
	c-0.063-6.152-53.546,0.855-60.014,1.595c-9.158,1.047-54.819,1.728-54.819,12.066V132.87c-15-10.316-47.553-4.587-43.862,14.279
	c2.83,14.466,19.152,15.241,31.172,14.551c14.119-0.811,21.898-6.831,22.257-19.898c0.022-0.813,0.114-1.653,0.083-2.521
	c-0.311-8.664-0.217-17.355-0.319-26.023c-0.195-16.486-0.467-32.841-0.628-49.231c32.931-0.554,65.296-6.772,98.296-11.39v68.841
	c-16-10.316-47.888-4.587-44.197,14.279c2.83,14.466,18.984,15.241,31.005,14.551c14.119-0.811,21.815-6.831,22.174-19.898
	c0.022-0.813,0.112-1.653,0.08-2.521C167.32,119.225,167.381,110.534,167.279,101.866z M60.231,58.331
	c-0.022-2.245-0.105-4.481-0.127-6.729c32.732-4.754,65.465-8.586,98.465-11.501v6.826C125.569,51.5,93.205,57.779,60.231,58.331z"
	/>
<path fill="#F2F2F2" d="M341.345,820.674c-4.095,1.196-6.829,4.951-9.086,8.307c-1.868,2.777-3.409,5.457-5.925,7.746
	c-3.193,2.905-8.794,1.952-13.193,1.788c-3.057-2.009-6.885,3.328-3.852,5.531l84.334,61.272
	c-17.75,6.881-32.237,36.566-14.804,44.669c13.367,6.214,23.3-6.14,29.807-16.271c7.643-11.899,7.201-21.534-3.159-29.505
	c-0.645-0.496-1.342-0.965-2.063-1.45c-7.193-4.841-14.204-9.976-21.277-14.988c-20.081-14.23-39.869-28.3-59.918-42.575
	c-0.499-0.355-0.985-0.697-1.473-1.045c3.795-0.335,7.364-1.348,10.67-4.356c2.777-2.526,4.58-6.159,6.651-9.238
	c7.618-11.328,17.227-0.805,21.121,7.053c1.629,3.287,6.848,1.003,5.217-2.289C359.938,826.331,352.441,817.434,341.345,820.674z"/>
<path fill="#F2F2F2" d="M111.824,684.661c7.66,3.557,14.851,0.176,22.41-1.603c5.743-1.351,21.811,3.565,21.949-2.825
	c0.107-4.94-13.886-16.701-17.388-20.591c-7.621-8.464-15.243-16.929-22.864-25.393c-9.984-11.088-19.968-22.176-29.952-33.265
	c18.05-2.371,39.127-29.057,23.76-40.608c-11.783-8.857-24.071,1.165-32.542,9.721c-9.95,10.05-11.523,19.568-3.047,29.518
	c0.528,0.619,1.111,1.224,1.715,1.848c6.029,6.23,11.819,12.712,17.695,19.085c11.712,12.702,23.298,25.301,34.922,37.951
	c-2.676-0.2-5.483,0.009-8.455,0.455c-13.446,2.017-29.159-0.678-29.101-17.757c0.013-3.663-5.676-3.978-5.689-0.298
	c-0.031,9.065,4.09,16.54,11.371,21.513C97.077,672.489,102.442,680.303,111.824,684.661z M136.166,667.238
	c0.25,0.218,0.516,0.368,0.786,0.488c2.12,2.309,4.236,4.612,6.362,6.928c0.381,0.415,0.754,0.814,1.128,1.221
	c-3.758-0.598-7.632-0.294-11.614,1.005c-6.034,1.969-10.017,4.416-16.695,3.173c-7.523-1.4-12.138-7.791-13.465-14.79
	C113.732,667.954,126.979,659.254,136.166,667.238z"/>
<path fill="#F2F2F2" d="M418.946,664.261c3.519-1.567,9.738-5.19,11.201-9.009c2.389-6.238,2.259-13.006,0.867-19.473
	c-2.183-10.14-2.092-19.081,2.635-28.354c2.982-1.739,0.256-7.875-3.123-6.441l-95.956,40.731
	c3.635-17.838-14.569-46.063-30.494-35.294c-12.211,8.258-6.652,23.336-1.32,34.13c6.263,12.68,14.792,17.364,26.96,12.589
	c0.757-0.297,1.54-0.603,2.327-0.971c7.854-3.672,15.877-7.012,23.817-10.493c15.631-6.854,31.129-13.623,46.685-20.407
	c-1.769,3.834-2.839,8.028-3.25,12.546c-0.525,5.766,1.078,11.56,1.931,17.212c1.978,13.108-9.711,21.933-21.55,15.823
	c-3.268-1.686-5.372,3.61-2.134,5.281c10.028,5.175,20.345,2.145,26.346-6.532C409.227,667.196,413.689,666.602,418.946,664.261z
	 M405.441,641.771c-1.562-8.981,0.547-17.97,6.507-24.605c3.753-1.636,7.502-3.27,11.269-4.912c0.977-0.426,1.931-0.837,2.876-1.248
	c-1.854,5.288-2.599,10.731-2.408,16.625c0.193,5.973,2.69,11.345,2.603,17.412c-0.138,9.623-10.103,17.609-19.751,15.39
	C408.319,654.547,406.426,647.437,405.441,641.771z"/>
<path fill="#F2F2F2" d="M755.938,855.283c0.309-0.293,0.57-0.663,0.745-1.136c3.88-10.489,4.401-20.664-5.303-28.06
	c-6.236-4.753-14.063-6.823-21.36-9.322c-3.247-1.112-26.812-15.484-26.812-8.183v104.243c-15-10.316-47.701-4.587-44.01,14.279
	c2.83,14.466,19.078,15.241,31.098,14.551c14.119-0.811,21.862-6.831,22.221-19.898c0.022-0.813,0.095-1.653,0.064-2.521
	c-0.311-8.664-0.226-17.355-0.328-26.023c-0.213-17.978-0.384-35.78-0.558-53.663c5.975,5.01,12.592,9.233,19.867,12.169
	c6.033,2.435,17.198,3.548,21.297,8.854c5.921,7.665-1.684,20.322-5.9,26.998c-1.968,3.116,2.964,5.971,4.919,2.875
	C757.305,881.851,766.249,864.118,755.938,855.283z M711.63,831.863c-0.039-4.047-0.078-8.089-0.117-12.151
	c-0.018-1.862-0.03-3.649-0.048-5.434c17.298,10.712,49.9,10.114,39.833,38.028c-4.801-2.299-10.268-3.111-15.377-4.935
	C726.794,844.112,718.652,838.476,711.63,831.863z"/>
<path fill="#F2F2F2" d="M716.763,563.649c-1.942,8.45-4.236,16.832-6.381,25.232c-6.088,23.846-12.139,47.361-18.281,71.194
	c-0.953,3.7-1.827,7.103-2.776,10.78c-0.983,3.668,5.742,5.47,6.725,1.802l26.98-100.691c12.003,13.896,45.489,16.938,46.807-2.241
	c1.011-14.706-14.183-19.579-25.972-22.023c-13.848-2.871-22.734,0.98-26.463,13.509
	C717.171,561.99,716.958,562.802,716.763,563.649z"/>
<path fill="#F2F2F2" d="M56.015,453.772c4.99,0.889,10.499-1.887,14.738-4.055c7.377-3.772,13.88-5.965,22.05-4.917
	c0.203,0.05,0.41,0.077,0.62,0.078c0.309,0.046,0.454,0.19,0.771,0.245c9.721,1.695-8.344-19.045-10.317-21.315
	c-7.779-8.949-15.558-17.898-23.338-26.847c-7.406-8.52-14.812-17.04-22.218-25.559c-0.98-1.127-7.914-11.325-9.426-11.145
	c18.232-2.181,39.2-27.998,24.037-39.815c-11.627-9.061-24.302,0.931-32.921,9.338c-10.124,9.875-11.97,19.457-3.668,29.554
	c0.517,0.628,1.036,1.29,1.629,1.924c5.919,6.335,11.568,12.939,17.333,19.414c16.365,18.382,32.467,36.555,48.791,54.974
	c0.944,1.066,1.854,2.1,2.762,3.124c-4.736,0.186-9.307,1.32-13.909,3.377c-4.39,1.963-8.168,4.561-12.91,5.73
	c-7.735,1.906-15.708-7.671-16.802-14.498c-0.583-3.638-6.178-2.56-5.598,1.057C39.077,443.414,46.993,452.165,56.015,453.772z"/>
<path fill="#F2F2F2" d="M367.444,94.277c-2.601-5.58-6.151-10.353-11.104-14.089c-7.975-6.014-19.154-11.204-19.629-22.561
	c-0.074-1.774-1.549-2.683-2.931-2.74c-2.001-0.443-4.581,0.459-4.581,2.729v104.243c-15-10.316-48.226-4.587-44.535,14.279
	c2.83,14.467,18.816,15.241,30.836,14.551c14.119-0.811,21.73-6.831,22.089-19.898c0.022-0.813,0.03-1.653-0.001-2.521
	c-0.311-8.664-0.259-17.355-0.361-26.023c-0.28-23.722-0.512-47.144-0.74-70.844c2.572,3.088,5.843,5.753,9.38,8.285
	c13.43,9.614,26.88,26.16,11.583,41.389c-2.605,2.594,1.423,6.621,4.028,4.028C369.547,117.073,372.372,104.849,367.444,94.277z"/>
<path fill="#F2F2F2" d="M434.61,239.236c3.944,7.721,7.575,15.617,11.331,23.43c10.664,22.181,21.144,44.084,31.758,66.288
	c1.648,3.447,3.166,6.616,4.803,10.042c1.605,3.442,7.915,0.499,6.31-2.942l-44.055-94.476c18.126,2.93,45.734-16.265,34.416-31.804
	c-8.679-11.915-23.45-5.882-34.052-0.176c-12.453,6.702-16.785,15.364-11.589,27.358
	C433.856,237.703,434.215,238.463,434.61,239.236z"/>
<path fill="#F2F2F2" d="M652.479,473.588c-14.283-6.214-16.854-21.521-9.211-33.926c9.319-15.125-2.536-36.75-18.33-41.982
	c-3.497-1.159-4.984,4.343-1.514,5.493c15.095,5.001,16.326,20.913,4.129,29.954c-4.646,3.444-9.174,6.345-12.687,11.031
	c-7.799,10.402,1.213,21.322,9.631,28.349c-16.57,8.084-14.695,33.826,5.524,37.801c2.644,0.52,4.981-2.675,2.771-4.76
	c-13.602-12.837,9.481-23.746,19.008-26.753C653.91,478.127,654.901,474.642,652.479,473.588z"/>
<path fill="#F2F2F2" d="M941.244,980.652c2.976-6.151,2.585-14.554-4.589-17.789c-7.27-3.278-15.114-2.294-22.471,0.311
	c18.166-23.505,35.535-47.61,52.054-72.324c2.297-3.437-2.985-7.078-5.285-3.637c-23.823,35.642-49.375,70.049-76.609,103.158
	c-1.309,1.591-0.289,4.275,1.592,4.85C902.583,1000.312,932.303,999.131,941.244,980.652z M926.402,985.883
	c-10.193,5.859-22.467,6.903-33.796,4.459c4.371-5.354,8.696-10.744,12.98-16.165c0.075-0.035,0.148-0.054,0.224-0.096
	c6.638-3.65,13.594-6.581,21.258-6.982c5.664-0.595,8.75,2.434,9.256,9.087C935.223,980.545,929.95,983.843,926.402,985.883z"/>
</svg>
